<?xml version="1.0" encoding="utf-8"?>
<!-- Generator: Adobe Illustrator 16.0.0, SVG Export Plug-In . SVG Version: 6.00 Build 0)  -->
<!DOCTYPE svg PUBLIC "-//W3C//DTD SVG 1.1//EN" "http://www.w3.org/Graphics/SVG/1.1/DTD/svg11.dtd">
<svg version="1.1" id="Layer_1" xmlns="http://www.w3.org/2000/svg" xmlns:xlink="http://www.w3.org/1999/xlink" x="0px" y="0px"
	 width="32px" height="32px" viewBox="0 0 32 32" enable-background="new 0 0 32 32" xml:space="preserve">
<g>
	<path fill="#FFFFFF" d="M19.119,25.105c-6.542,3.242-14.5,0.557-17.743-5.986S0.818,4.618,7.361,1.376
		c6.544-3.243,14.502-0.557,17.745,5.985S25.663,21.861,19.119,25.105z M8.386,3.446c-5.4,2.676-7.617,9.246-4.94,14.647
		c2.677,5.401,9.247,7.617,14.647,4.941c5.402-2.677,7.618-9.246,4.941-14.647C20.357,2.985,13.789,0.769,8.386,3.446z"/>
	<g>
		<path fill="#FFFFFF" d="M31.918,30.713c0.365,0.354,0.375,0.936,0.021,1.303l0,0c-0.357,0.361-0.937,0.371-1.301,0.017
			l-7.449-7.25c-0.363-0.353-0.371-0.938-0.019-1.3l0,0c0.354-0.364,0.937-0.375,1.302-0.018L31.918,30.713z"/>
	</g>
</g>
</svg>
