<?xml version="1.0" encoding="utf-8"?>
<!-- Generator: Adobe Illustrator 16.0.0, SVG Export Plug-In . SVG Version: 6.00 Build 0)  -->
<!DOCTYPE svg PUBLIC "-//W3C//DTD SVG 1.1//EN" "http://www.w3.org/Graphics/SVG/1.1/DTD/svg11.dtd">
<svg version="1.1" id="Layer_1" xmlns="http://www.w3.org/2000/svg" xmlns:xlink="http://www.w3.org/1999/xlink" x="0px" y="0px"
	 width="120.854px" height="117.027px" viewBox="0 0 120.854 117.027" enable-background="new 0 0 120.854 117.027"
	 xml:space="preserve">
<g>
	<path fill="#FFFFFF" d="M60.635,90.296c-16.353,0-29.654-13.303-29.654-29.656c0-16.353,13.302-29.656,29.654-29.656
		c16.356,0,29.657,13.304,29.657,29.656C90.292,76.993,76.992,90.296,60.635,90.296z M60.635,36.159
		c-13.498,0-24.48,10.979-24.48,24.48s10.982,24.481,24.48,24.481c13.504,0,24.483-10.98,24.483-24.481
		C85.119,47.139,74.14,36.159,60.635,36.159z"/>
	<g>
		<path fill="#FFFFFF" d="M37.548,34.798c0.748,0.859,0.665,2.158-0.188,2.908l0,0c-0.864,0.753-2.167,0.662-2.907-0.191
			L19.117,19.997c-0.748-0.862-0.66-2.162,0.19-2.904l0,0c0.856-0.749,2.163-0.67,2.911,0.192L37.548,34.798z"/>
	</g>
	<g>
		<path fill="#FFFFFF" d="M62.778,25.326c0.013,1.135-0.906,2.063-2.042,2.071l0,0c-1.139,0.008-2.065-0.901-2.074-2.049
			L58.496,2.076c-0.01-1.145,0.908-2.067,2.04-2.076l0,0c1.142-0.004,2.065,0.901,2.077,2.05L62.778,25.326z"/>
	</g>
	<g>
		<path fill="#FFFFFF" d="M25.427,54.982c1.139,0.095,1.972,1.091,1.887,2.22l0,0c-0.094,1.135-1.081,1.978-2.223,1.89l-23.199-1.89
			c-1.136-0.097-1.987-1.093-1.884-2.22l0,0c0.088-1.136,1.077-1.977,2.222-1.896L25.427,54.982z"/>
	</g>
	<g>
		<path fill="#FFFFFF" d="M29.165,77.032c0.965-0.611,2.236-0.321,2.843,0.639l0,0c0.605,0.957,0.324,2.234-0.642,2.845
			L11.69,92.951c-0.969,0.611-2.239,0.324-2.84-0.638l0,0c-0.612-0.964-0.324-2.233,0.643-2.843L29.165,77.032z"/>
	</g>
	<g>
		<path fill="#FFFFFF" d="M46.743,92.371c0.405-1.07,1.592-1.604,2.654-1.204l0,0c1.061,0.401,1.603,1.585,1.207,2.66l-8.203,21.781
			c-0.408,1.066-1.592,1.604-2.646,1.2l0,0c-1.08-0.401-1.613-1.586-1.213-2.656L46.743,92.371z"/>
	</g>
	<g>
		<path fill="#FFFFFF" d="M91.199,81.393c-1.014-0.532-1.398-1.771-0.865-2.778l0,0c0.522-1.008,1.771-1.398,2.781-0.863
			l20.6,10.829c1.013,0.537,1.397,1.784,0.863,2.776l0,0c-0.527,1.018-1.77,1.396-2.787,0.871L91.199,81.393z"/>
	</g>
	<g>
		<path fill="#FFFFFF" d="M95.915,56.274c-1.13,0.133-2.155-0.677-2.284-1.8l0,0c-0.135-1.13,0.671-2.16,1.808-2.291l23.117-2.704
			c1.137-0.129,2.161,0.68,2.285,1.804l0,0c0.138,1.139-0.671,2.155-1.808,2.295L95.915,56.274z"/>
	</g>
	<g>
		<path fill="#FFFFFF" d="M80.745,114.279c0.382,1.071-0.178,2.25-1.254,2.636l0,0c-1.077,0.369-2.249-0.187-2.625-1.261
			l-7.741-21.958c-0.376-1.067,0.188-2.251,1.257-2.625l0,0c1.074-0.381,2.252,0.179,2.628,1.258L80.745,114.279z"/>
	</g>
	<g>
		<path fill="#FFFFFF" d="M84.553,35.37c-0.706,0.9-1.99,1.061-2.893,0.363l0,0c-0.898-0.701-1.055-1.992-0.356-2.889l14.334-18.352
			c0.7-0.896,1.995-1.062,2.89-0.357l0,0c0.896,0.697,1.055,1.996,0.351,2.897L84.553,35.37z"/>
	</g>
</g>
</svg>
